<svg id="_0529_campaign_launch" xmlns="http://www.w3.org/2000/svg" xmlns:xlink="http://www.w3.org/1999/xlink" viewBox="0 0 500 500" data-imageid="marketing-campaign-90" imageName="Marketing Campaign" class="illustrations_image" style="width: 144px;"><defs><style>.cls-1_marketing-campaign-90{fill:url(#linear-gradient);}.cls-1_marketing-campaign-90,.cls-2_marketing-campaign-90,.cls-3_marketing-campaign-90,.cls-4_marketing-campaign-90,.cls-5_marketing-campaign-90,.cls-6_marketing-campaign-90,.cls-7_marketing-campaign-90,.cls-8_marketing-campaign-90,.cls-9_marketing-campaign-90,.cls-10_marketing-campaign-90,.cls-11_marketing-campaign-90,.cls-12_marketing-campaign-90,.cls-13_marketing-campaign-90,.cls-14_marketing-campaign-90,.cls-15_marketing-campaign-90,.cls-16_marketing-campaign-90{stroke-width:0px;}.cls-2_marketing-campaign-90{opacity:.18;}.cls-2_marketing-campaign-90,.cls-12_marketing-campaign-90{isolation:isolate;}.cls-2_marketing-campaign-90,.cls-16_marketing-campaign-90{fill:#68e1fd;}.cls-3_marketing-campaign-90{fill:url(#linear-gradient-10-marketing-campaign-90);}.cls-17_marketing-campaign-90{stroke-miterlimit:10;stroke-width:1.38px;}.cls-17_marketing-campaign-90,.cls-18_marketing-campaign-90{fill:none;stroke:#fff;}.cls-18_marketing-campaign-90{stroke-miterlimit:10;stroke-width:1.38px;}.cls-19_marketing-campaign-90{opacity:.66;}.cls-4_marketing-campaign-90{fill:url(#linear-gradient-4-marketing-campaign-90);}.cls-5_marketing-campaign-90{fill:url(#linear-gradient-2-marketing-campaign-90);}.cls-6_marketing-campaign-90{fill:url(#linear-gradient-3-marketing-campaign-90);}.cls-7_marketing-campaign-90{fill:url(#linear-gradient-8-marketing-campaign-90);}.cls-8_marketing-campaign-90{fill:url(#linear-gradient-9-marketing-campaign-90);}.cls-9_marketing-campaign-90{fill:url(#linear-gradient-7-marketing-campaign-90);}.cls-10_marketing-campaign-90{fill:url(#linear-gradient-5-marketing-campaign-90);}.cls-11_marketing-campaign-90{fill:url(#linear-gradient-6-marketing-campaign-90);}.cls-12_marketing-campaign-90{opacity:.56;}.cls-12_marketing-campaign-90,.cls-14_marketing-campaign-90{fill:#fff;}.cls-13_marketing-campaign-90{fill:#231f20;}.cls-15_marketing-campaign-90{fill:#fcab9a;}</style><linearGradient id="linear-gradient-marketing-campaign-90" x1="-511.8" y1="2271.56" x2="481.77" y2="1528.46" gradientTransform="translate(384.29 2282.42) scale(1 -1)" gradientUnits="userSpaceOnUse"><stop offset="0" stop-color="#231f20"/><stop offset=".08" stop-color="#231f20" stop-opacity=".69"/><stop offset=".21" stop-color="#231f20" stop-opacity=".32"/><stop offset="1" stop-color="#231f20" stop-opacity="0"/></linearGradient><linearGradient id="linear-gradient-2-marketing-campaign-90" x1="-178.84" y1="2053.91" x2="-75.45" y2="1725.58" xlink:href="#linear-gradient-marketing-campaign-90"/><linearGradient id="linear-gradient-3-marketing-campaign-90" x1="-144.92" y1="2157.48" x2="-208.13" y2="1730.16" gradientTransform="translate(409 2323.65) scale(1 -1)" xlink:href="#linear-gradient-marketing-campaign-90"/><linearGradient id="linear-gradient-4-marketing-campaign-90" x1="-207.61" y1="2097.73" x2="-256.32" y2="1768.47" gradientTransform="translate(409 2323.65) scale(1 -1)" xlink:href="#linear-gradient-marketing-campaign-90"/><linearGradient id="linear-gradient-5-marketing-campaign-90" x1="-216.75" y1="1958.72" x2="-242.66" y2="1892.07" xlink:href="#linear-gradient-marketing-campaign-90"/><linearGradient id="linear-gradient-6-marketing-campaign-90" x1="-102.13" y1="2222.25" x2="8.91" y2="1252.52" xlink:href="#linear-gradient-marketing-campaign-90"/><linearGradient id="linear-gradient-7-marketing-campaign-90" x1="-163.24" y1="2106.45" x2="-87.5" y2="1756.42" xlink:href="#linear-gradient-marketing-campaign-90"/><linearGradient id="linear-gradient-8-marketing-campaign-90" x1="-45.05" y1="2105.78" x2="-13.39" y2="1950.8" xlink:href="#linear-gradient-marketing-campaign-90"/><linearGradient id="linear-gradient-9-marketing-campaign-90" x1="-118.41" y1="2145.29" x2="42.55" y2="2004.21" gradientTransform="translate(409 2323.65) scale(1 -1)" xlink:href="#linear-gradient-marketing-campaign-90"/><linearGradient id="linear-gradient-10-marketing-campaign-90" x1="-117.8" y1="2051.11" x2="58.57" y2="2064.76" xlink:href="#linear-gradient-marketing-campaign-90"/></defs><g id="background_marketing-campaign-90"><path class="cls-2_marketing-campaign-90 targetColor" d="M223.12,90.69c-3.77,1.75-7.48,3.64-11.12,5.72-42.54,24.22-72.32,69.67-118.9,84.77-12.61,4.09-26.15,5.21-36.34,14.16-7.35,6.71-13.75,14.39-19.02,22.84-11.13,17.5-18.52,37.12-21.7,57.62-6.36,39.7,2.54,84.4,34.13,111.59,23.74,20.46,59.07,21.49,88.81,15.96,17.06-3.16,33.4-9.33,50.28-13.39,29.52-7.07,60.23-7.62,89.98-1.6,19.62,3.97,38.59,10.81,58.22,15.01,14.11,3.03,28.79,4.71,43.19,2.85,13.82-1.79,24.47-8.38,37.05-13.7,23.94-10.15,48.17-23.09,63.42-44.91,11.74-17.1,17.16-37.75,15.34-58.41-1.99-20.63-10.43-40.1-24.12-55.66-6.07-6.99-14.01-13.15-16.98-22.05-2.96-8.89-3.43-19.27-4.35-28.38-2.01-19.99-4.42-40.56-14.16-58.13-10.82-19.53-30-33.52-50.92-41.39-20.92-7.87-43.54-10.12-65.89-10.39-33.1-.33-67.06,3.64-96.94,17.51Z" style="fill: rgb(104, 253, 137);"/><path class="cls-1_marketing-campaign-90" d="M443.89,265.06l-22.5,15.88-99.88,70.17c-7.67,5.53-15.66,10.6-23.92,15.19-6.74,3.64-10.59,10.59-18.74,12.44-4.05.7-8.19.63-12.21-.21-6.58-1.07-13.04-2.71-19.33-4.91-.77-.26-1.87-.42-2.21.32s1.51.66.86.16c-58.56-7.94-114.5-29.11-172.53-40.23-1.72-.32-2.85-1.97-2.53-3.69.2-1.07.93-1.96,1.94-2.36,4.67-1.91,9.77-2.65,14.91-3.65,9.26-1.71,18.39-3.37,27.63-4.88,18.62-3.22,37.41-5.31,56.28-6.25,31.34-1.32,62.96,2.02,93.95-2.83,29.44-4.61,57.15-16.37,84.54-28.15,6.62-2.83,13.35-5.77,18.53-10.75,4.06-3.9,7.32-9.05,12.49-11.62,5.37-2.65,11.91-2.18,17.68-1.92,15.22.67,30.25,3.77,45.04,7.28Z"/></g><g id="laptop_marketing-campaign-90"><path class="cls-16_marketing-campaign-90 targetColor" d="M75.96,314.17l130.79-56.9c2.83-1.42,6.03-1.95,9.17-1.52l161.77,13.75c3.1.44,2.54,13.75,0,15.88l-95.54,81.33c-5.84,5.15-13.82,7.16-21.4,5.37l-183.64-44.66c-2.34-.57-3.35-12.16-1.15-13.25Z" style="fill: rgb(104, 253, 137);"/><path class="cls-5_marketing-campaign-90" d="M75.96,314.17l130.79-56.9c2.83-1.42,6.03-1.95,9.17-1.52l161.77,13.75c3.1.44,2.54,13.75,0,15.88l-95.54,81.33c-5.84,5.15-13.82,7.16-21.4,5.37l-183.64-44.66c-2.34-.57-3.35-12.16-1.15-13.25Z"/><path class="cls-16_marketing-campaign-90 targetColor" d="M377.74,275.94l-95.54,81.33c-5.83,5.16-13.81,7.17-21.4,5.39l-183.68-44.67c-2.34-.57-2.65-4.27-.46-5.37l50.34-28.41,13.23-7.44,40.24-22.61c2.83-1.42,6.03-1.95,9.17-1.52l186.48,16.22c3.1.37,4.13,4.96,1.63,7.09Z" style="fill: rgb(104, 253, 137);"/><polygon class="cls-6_marketing-campaign-90" points="189.62 257.05 360.07 282.26 307.6 324.87 132.68 289.47 189.62 257.05"/><polygon class="cls-4_marketing-campaign-90" points="171.78 300.03 242.02 314.23 205.7 343.86 132.68 327.48 171.78 300.03"/><path class="cls-10_marketing-campaign-90" d="M136.66,332.61c1.45,2.92,4.09,5.07,7.24,5.92,5.16,1.24,35.24,8.95,35.24,8.95,0,0,4.9.58,7.61-2.65l-50.09-12.21Z"/><path class="cls-16_marketing-campaign-90 targetColor" d="M184.27,252.54l192.38,27.38c2.93.41,5.66-1.54,6.25-4.43l27.44-138.59c1.16-5.81-2.62-11.46-8.43-12.62-.38-.08-.77-.13-1.16-.17l-189.98-16.66c-5.82-.51-10.97,3.72-11.61,9.53l-14.89,135.56Z" style="fill: rgb(104, 253, 137);"/><path class="cls-11_marketing-campaign-90" d="M184.27,252.54l191.88,27.3c3.22.46,6.23-1.68,6.87-4.87l27.33-138.07c1.16-5.81-2.62-11.46-8.43-12.62-.38-.08-.77-.13-1.16-.17l-189.98-16.66c-5.82-.51-10.97,3.72-11.61,9.53l-14.89,135.56Z"/><polygon class="cls-14_marketing-campaign-90" points="373.17 271.95 400.5 132.12 206.76 114.23 191.35 246.63 373.17 271.95"/><path class="cls-16_marketing-campaign-90 targetColor" d="M357.24,157.54l-135.89-14.15,3.08-17.2,135.93,14.15c4.53.29,7.96,4.2,7.67,8.73-.02.28-.05.57-.1.85h0c-1.08,4.91-5.7,8.2-10.69,7.62Z" style="fill: rgb(104, 253, 137);"/><polygon class="cls-12_marketing-campaign-90" points="221.35 143.4 331.12 154.84 334.2 137.59 224.43 126.13 221.35 143.4"/><ellipse class="cls-17_marketing-campaign-90" cx="349.13" cy="146.97" rx="4.51" ry="4.14" transform="translate(-29.55 137.26) rotate(-21.36)"/><path class="cls-18_marketing-campaign-90" d="M351.95,154.13c-.09-.22-1.24-3.36-1.24-3.36"/><polygon class="cls-2_marketing-campaign-90 targetColor" points="355.93 182.45 217.25 167.6 217.98 165.32 356.64 180.17 355.93 182.45" style="fill: rgb(104, 253, 137);"/><polygon class="cls-2_marketing-campaign-90 targetColor" points="266.55 164.24 219.72 158.69 220.68 154.62 267.52 159.73 266.55 164.24" style="fill: rgb(104, 253, 137);"/><polygon class="cls-2_marketing-campaign-90 targetColor" points="354.21 191.62 215.53 176.77 216.24 174.49 354.92 189.34 354.21 191.62" style="fill: rgb(104, 253, 137);"/><g class="cls-19_marketing-campaign-90"><polygon class="cls-2_marketing-campaign-90 targetColor" points="259.1 200.87 212.27 195.34 213.23 191.25 260.07 196.36 259.1 200.87" style="fill: rgb(104, 253, 137);"/><polygon class="cls-2_marketing-campaign-90 targetColor" points="348.11 219.9 209.43 205.05 210.16 202.76 348.84 217.62 348.11 219.9" style="fill: rgb(104, 253, 137);"/><polygon class="cls-2_marketing-campaign-90 targetColor" points="344.95 230.51 206.27 215.66 206.99 213.39 345.66 228.23 344.95 230.51" style="fill: rgb(104, 253, 137);"/></g><polygon class="cls-2_marketing-campaign-90 targetColor" points="342.26 253.44 203.72 235.35 204.44 233.09 342.97 251.18 342.26 253.44" style="fill: rgb(104, 253, 137);"/></g><g id="rockets_marketing-campaign-90"><path class="cls-9_marketing-campaign-90" d="M362.13,286.87c-.5,1.52-2.16,2.3-3.65,2.9-10.9,4.09-22.02,7.59-33.29,10.48-10.71,2.95-21.87,5.93-32.8,3.97-1.37-.36-2.8-.47-4.21-.34-2.33.42-4.05,2.32-5.86,3.81-9.04,7.44-22.24,5.74-33.76,3.65.5-3.8.75-7.62.74-11.45-30.79.55-61.58-1.55-92.01-6.27-6.62-1.02-24.49-1.83-29.01-7.32-.56-.61-1.01-1.3-1.32-2.06l13.23-7.44c.6.03,1.19.12,1.77.28,35.21,9.76,71.81,13.57,108.27,11.25.94-4.75-3.97-10.69-.24-13.84,1.23-.87,2.72-1.31,4.22-1.23,5.59-.22,11.14.95,16.17,3.39,2.98,1.46,5.78,3.36,9,4.18,3.15.62,6.37.73,9.55.3,20.3-1.52,40.67-1.91,61.02-1.16,3.35.12,6.85.32,9.7,2.08,1.67,1.01,3.11,2.96,2.47,4.83Z"/><path class="cls-14_marketing-campaign-90" d="M265.39,240.08s-141.72,46.92-161.1,4.8c-19.37-42.12,86.71-53.66,86.71-53.66,0,0-123.96,12.35-96.15,64.38,27.82,52.03,178.99.58,178.99.58l-8.46-16.1Z"/><path class="cls-16_marketing-campaign-90 targetColor" d="M265.72,238.13c.06,1.93.59,3.81,1.54,5.49l3.49,7.46c.74,1.86,1.79,3.58,3.1,5.09,2.07,2.1,5.02,3.08,7.94,2.65,1.38-.09,2.61-.89,3.26-2.12.6-1.55-.41-3.2-1.22-4.64-2.17-3.88-3.1-8.3-4.13-12.61-.79-3.36-2.41-8.1-6.51-8.57-3.63-.42-7.25,3.72-7.46,7.25Z" style="fill: rgb(104, 253, 137);"/><path class="cls-16_marketing-campaign-90 targetColor" d="M301.32,220.74s-29.99-27.43-59.3,0c0,0,22.65-2.92,29.64,9.55l29.65-9.55Z" style="fill: rgb(104, 253, 137);"/><path class="cls-16_marketing-campaign-90 targetColor" d="M313.57,245.82s-1.43,40.62-41.54,42.34c0,0,17.96-14.12,13.95-27.86l27.59-14.49Z" style="fill: rgb(104, 253, 137);"/><path class="cls-14_marketing-campaign-90" d="M271.66,230.32s94.55-54.25,147.7-45.57c0,0-12.02,39.06-133.43,75.56l-14.28-29.99Z"/><path class="cls-7_marketing-campaign-90" d="M419.43,184.72s-12.02,39.06-133.43,75.56l-4.33-9.09-10.02-20.87s83.92-48.22,138.08-46.5c3.24.09,6.48.39,9.69.9Z"/><path class="cls-14_marketing-campaign-90" d="M419.43,184.72c-8.4,11.02-37.41,31.34-97.04,53-3.37,1.24-6.84,2.47-10.41,3.71-9.4,3.25-19.5,6.5-30.3,9.77l-10-20.87s10.33-6.21,26.13-14.09c8.34-4.17,18.2-8.8,28.86-13.23,29.76-12.37,65.83-23.29,92.76-18.27Z"/><circle class="cls-16_marketing-campaign-90 targetColor" cx="334.8" cy="217.47" r="10.88" style="fill: rgb(104, 253, 137);"/><circle class="cls-8_marketing-campaign-90" cx="334.8" cy="217.1" r="7.41"/></g><g id="character_marketing-campaign-90"><path class="cls-3_marketing-campaign-90" d="M346.57,204.98c-5.04,2.1-10.71,1.76-16.16,2.12-1.62.06-3.23.32-4.79.75-3.08,1.19-5.9,2.99-8.27,5.29-.32.22-.56.54-.69.91-.04.39.06.77.26,1.1,1.21,2.46,2.6,4.83,4.16,7.08,1.85,2.65,4.04,5.47,3.97,8.72-.19,2.49-1.16,4.86-2.77,6.78l-.4.56c-1.91,2.57-3.98,5.01-6.21,7.32-1.64,1.69-.58,6.87-4.55,5.62-3.45-1.07-1.77-5.17-.6-7.33l1.32-2.46,2.22-4.12c1.69-3.11,3.41-6.8,1.98-10.04-1.01-2.26-3.32-3.63-5.49-4.84-4.1-2.43-8.39-4.5-12.84-6.21,8.34-4.17,18.2-8.8,28.86-13.23,6.96.58,13.96.69,20.93.3.58.56-.24,1.38-.97,1.68Z"/><path class="cls-15_marketing-campaign-90" d="M318.53,193.79c0,.07-1.56-.2-1.52-.12.36.42.81.75,1.32.95,1.87.76,3.79,1.39,5.74,1.91,1.95.2,2.88-1.64,3.49-3.19.49-1.24.99-2.49,1.51-3.72.4-.79.65-1.65.74-2.53.02-.2,0-.41-.08-.6-.13-.24-.34-.43-.6-.53-.39-.16-.83-.16-1.22,0-.71.3-1.05,1.11-1.4,1.8-.83,1.57-2.14,2.86-2.86,4.49-.53.03-1.06-.14-1.47-.49l-2.32-1.51c-.11-.09-.24-.15-.38-.17-.23-.01-.46.09-.6.28-.42.5-.67,1.12-.71,1.77-.07.33-.07.67,0,1.01.08.23.2.45.34.65Z"/><path class="cls-16_marketing-campaign-90 targetColor" d="M320.32,190.19l.82.5c.12,0,.24.13.28.26.03.1.03.2,0,.29l-.54,2.41c-.17,1.08-.55,2.11-1.14,3.03-.32.44-2.65-1.18-3.04-1.39-.99-.66-1.86-1.49-2.55-2.45-.32-.39-.57-.84-.73-1.32-.24-1.22-.05-2.49.53-3.59.93-1.81,2.49-.91,3.67.2.84.77,1.75,1.45,2.71,2.05Z" style="fill: rgb(104, 253, 137);"/><path class="cls-15_marketing-campaign-90" d="M305.38,250.29c.04.17.13.33.26.45,1.89,1.84,4.14,3.27,6.6,4.19.15.08.32.13.49.13.34-.07.58-.38.56-.73-.03-.34-.16-.66-.36-.93-.49-.77-1.03-1.5-1.63-2.18-.56-.46-.91-1.12-.99-1.84.05-.36.15-.71.28-1.05.4-1.5-2.09-1.8-3.14-1.44-1.2.73-1.97,1.99-2.08,3.39Z"/><path class="cls-13_marketing-campaign-90" d="M299.29,208.26s-4.51,6.3.13,11.91c3.22,3.89,8.05,6.54,12.49,8.76.78.4,1.71.71,2.46,1.19,1.47.93.57,1.71-.21,2.94-1.96,3.15-3.93,6.28-5.93,9.38-1.15,1.57-1.94,3.38-2.32,5.29l5.04,1.54c2.72-4.63,5.81-9.03,9.26-13.14,1.5-1.77,3.43-3.97,3.15-6.43-.35-2.28-1.35-4.41-2.88-6.13l-9.43-10.96-11.76-4.35Z"/><path class="cls-15_marketing-campaign-90" d="M321.21,178.16c.16.46.61.83.67,1.32s-.44,1.07-.77,1.61-.56,1.59-1.01,2.32c-.08.16-.21.29-.37.37-.14.05-.3.08-.45.08-.6-.02-1.2-.12-1.77-.29-.1-.07-.22-.09-.34-.08-.1.06-.18.15-.21.26-.67,1.39-1,2.93-.94,4.47,0,.5,0,1.14-.41,1.39-.15.1-.33.14-.5.13-1.16,0-2.05-1.05-2.65-2.08-.49-.93-.86-1.91-1.12-2.92-.09-.29-.13-.6-.11-.91.06-.36.19-.7.37-1.02.59-1.15,1.06-2.35,1.42-3.59.31-1.62.86-3.19,1.64-4.64.3-.46.74-.82,1.26-1.02.59-.13,1.2-.1,1.77.09,1.2.19,2.27.84,3,1.8.22.34.33,2.1.52,2.7Z"/><path class="cls-16_marketing-campaign-90 targetColor" d="M309.6,213.44c-1.01.16-2.04.1-3.03-.17-1.45-.29-2.92-.37-4.39-.25-.87.22-1.73.51-2.55.86-1.36.37-2.81.12-3.97-.67v-.61c.2-1.77-.54-4.29,0-5.99,1.95-6.81,3.6-11.91,7.48-17.76,1.11-1.68,5.49-3.84,7.29-4.74.41-.22.86-.35,1.32-.38.53.02,1.05.17,1.52.42,1.6.78,2.22,2.24,3,3.74.91,1.54,1.53,3.23,1.83,4.99.2,2.28,1.01,4.41-.29,6.52-1.79,2.98-4.75,4.99-6.4,8.2-.29.46-.46,1-.48,1.55,0,.77.54,1.47.54,2.24-.11,1.02-.86,1.84-1.87,2.05Z" style="fill: rgb(104, 253, 137);"/><path class="cls-15_marketing-campaign-90" d="M319.8,202.71c.64.29,1.32.54,1.87.75,3.11.99,6.33,1.58,9.59,1.75,4.1.52,8.24.59,12.36.22,1.68-.13,3.31-.64,4.76-1.5.42-.28.86-.78.65-1.24-.12-.21-.31-.37-.53-.46-1.59-.84-3.38-1.21-5.17-1.09,0-.62-.16-1.42-.77-1.47s-.97.78-1.32,1.32c-.79,1.32-2.65,1.47-4.13,1.46-3.43.05-6.85-.3-10.19-1.05-1.68-.4-3.3-.99-4.84-1.76-.99-.5-2.99-2.58-3.97-1.47-.98,1.11-1.89,1.85-.57,3.03.67.61,1.44,1.11,2.26,1.5Z"/><path class="cls-16_marketing-campaign-90 targetColor" d="M314.64,189.94s5.19,7.32,5.94,7.75c.75.44-4.66,5.76-4.66,5.76,0,0-6.27-6.79-7-10.26-.73-3.47,2.51-5.85,5.72-3.26Z" style="fill: rgb(104, 253, 137);"/><path class="cls-13_marketing-campaign-90" d="M320.65,174.75c-.45.62-1.14,1.02-1.89,1.11-.65.1-1.31.16-1.97.17h-.16c-.05.05-.07.13-.07.2-.06,1.03-.54,1.99-1.32,2.65-.1.06-.19.16-.24.26-.05.15-.05.32,0,.48.09.53.09,1.07,0,1.6-.08.54-.33,1.04-.71,1.42-.1.07-.17.16-.2.28,0,.1.03.19.08.28.18.55.14,1.15-.11,1.68-1.01-.77-2.31-1.05-3.55-.77-.37.03-.72.18-1.01.42-1.77,1.87-3.23,4.08-5.09,5.88-.79.77-1.68,1.44-2.42,2.28-1.12,1.36-2.01,2.9-2.65,4.54-.49,1.29-1.13,2.51-1.92,3.64-.8,1.13-2.02,1.9-3.39,2.13-1.3.11-2.58-.33-3.53-1.22-1.69-1.55-2.31-3.94-1.59-6.11.17-.33.22-.71.13-1.07-.1-.2-.25-.38-.42-.52-1.69-1.76-1.69-4.53,0-6.29.89-.83,3.02-1.64,3.14-3.02.12-1.38-1.11-2.74-.61-4.33.18-.48.45-.93.78-1.32.64-.94,1.5-1.7,2.51-2.21,1.02-.34,2.1-.52,3.18-.52,3.47-.24,7.09-1.32,9.38-3.97.52-.69,1.08-1.33,1.69-1.93.72-.56,1.54-.97,2.41-1.22,2.1-.8,4.42-.84,6.54-.09,1.49.62,2.62,1.9,3.06,3.45.29.68.27,1.45-.05,2.12Z"/><path class="cls-14_marketing-campaign-90" d="M320.27,180.48c-.51-.02-1.02-.06-1.52-.13-.15.28.52,1.32.66,1.4.14.13.36.13.5,0,.06-.08.1-.18.12-.28l.24-1.01"/><circle class="cls-13_marketing-campaign-90" cx="319.08" cy="177.83" r=".4"/><rect class="cls-16_marketing-campaign-90 targetColor" x="325.15" y="184.39" width="5.21" height="1.91" rx=".66" ry=".66" transform="translate(84.38 472.64) rotate(-79.22)" style="fill: rgb(104, 253, 137);"/><path class="cls-15_marketing-campaign-90" d="M327.37,183.15c-.71.08-1.32.54-1.57,1.2-.22.87.11,1.79.85,2.3.73.49,1.56.79,2.43.89.26.09.54.05.77-.11.11-.13.19-.28.21-.45.21-.59.29-1.22.25-1.84-.37-1.28-1.61-2.12-2.94-2Z"/><path class="cls-16_marketing-campaign-90 targetColor" d="M324.96,180.3l-.13,1.51c-.09.42.17.83.58.93,2.54.18,5.02.82,7.32,1.91,1.25.7,2.43,1.51,3.55,2.41.45.36,1.1,0,1.2-.77l1.18-7.94c.11-.7-.4-1.19-.93-.93-2.21,1.12-7.17,3.19-11.76,1.92-.49-.12-.95.34-1.01.97Z" style="fill: rgb(104, 253, 137);"/><path class="cls-13_marketing-campaign-90" d="M305.7,248.66c-.63.41-1.1,1.03-1.32,1.75-.07.22-.07.46,0,.69.09.2.23.37.41.5,2.12,1.88,4.5,3.45,7.07,4.64.33.17.68.27,1.05.3.37.04.73-.11.95-.41.13-.21.19-.45.19-.7.06-1.86-1.4-3.42-3.27-3.48-.04,0-.09,0-.13,0-.33.03-.65.03-.98,0-.3-.08-.59-.21-.85-.4-.7-.41-1.35-.87-1.96-1.4-.41-.48-.79-.98-1.15-1.5Z"/></g></svg>